<svg id="Слой_1" data-name="Слой 1" xmlns="http://www.w3.org/2000/svg" viewBox="0 0 526.08 439.86"><defs><style>.cls-1{fill:#e2e2e2;}.cls-1,.cls-2{stroke:#fff;stroke-linecap:round;stroke-miterlimit:10;}.cls-2{fill:#f7f7f7;}</style></defs><title>Galaxy map</title><path id="Inner_Rim" data-name="Inner Rim" class="cls-1" d="M1148.59,868.12a57.81,57.81,0,0,0,14.46-5.9,58.48,58.48,0,0,0,17.6-16.62,110.88,110.88,0,0,0,11.78-21.71c7-16.55,11.55-33.88,15.62-51.39s7.64-35.2,12.58-52.46c7.91-27.6,23.63-64.29,29.4-99.4s1.59-68.6-30.32-89.81c-12.37-8.22-26.11-14.8-40.08-20.94s-28.19-11.82-41.53-18.27a683.24,683.24,0,0,0-65.5-27.55,665.38,665.38,0,0,0-68-20.51,384.44,384.44,0,0,0-37.95-7.52,206.57,206.57,0,0,0-38.48-2,142.59,142.59,0,0,0-38,6.89,175.59,175.59,0,0,0-30.47,12.73c-13.31,6.1-26.52,14-39.31,22.35a205.67,205.67,0,0,0-93.22,172.77A86.34,86.34,0,0,0,728.67,666a38.88,38.88,0,0,0,6.59,15.47,40.45,40.45,0,0,0,9,8.56A109.87,109.87,0,0,0,755,696.58c18.18,10.13,36.93,19.52,55,29.83S845.55,748,861.09,761.8c11.75,10.46,22.25,22.27,33,33.83s21.63,22.87,34.2,32.32a175.28,175.28,0,0,0,39.29,21.87,276.84,276.84,0,0,0,43.26,13.3,386.06,386.06,0,0,0,114.88,8.44A140.6,140.6,0,0,0,1145,869Q1146.82,868.6,1148.59,868.12Z" transform="translate(-726.64 -433.34)"/><path id="Colonies" class="cls-1" d="M843.39,624.71c0-174.78,272-175.51,272,0S843.39,799.52,843.39,624.71Z" transform="translate(-726.64 -433.34)"/><path id="Core" class="cls-2" d="M888.51,624.71c0-117.17,181.71-117.17,181.71,0S888.51,741.88,888.51,624.71Z" transform="translate(-726.64 -433.34)"/><path id="Deep_Core" data-name="Deep Core" class="cls-2" d="M1037.6,624.71c0-75-116.46-74.78-116.46,0S1037.6,700.15,1037.6,624.71Z" transform="translate(-726.64 -433.34)"/></svg>